<svg width="19" height="14" viewBox="0 0 19 14" fill="none" xmlns="http://www.w3.org/2000/svg">
<path d="M10.5 14.0004H1.16667C0.466667 14.0004 0 13.5337 0 12.8337C0 12.1337 0.466667 11.667 1.16667 11.667H10.5C11.2 11.667 11.6667 12.1337 11.6667 12.8337C11.6667 13.5337 11.2 14.0004 10.5 14.0004Z" fill="white"/>
<path d="M17.5 8.16738H1.16667C0.466667 8.16738 0 7.7007 0 7.00068C0 6.30066 0.466667 5.83398 1.16667 5.83398H17.5C18.2 5.83398 18.6667 6.30066 18.6667 7.00068C18.6667 7.7007 18.2 8.16738 17.5 8.16738Z" fill="white"/>
<path d="M17.5 2.33339H8.16667C7.46667 2.33339 7 1.86672 7 1.1667C7 0.466679 7.46667 0 8.16667 0H17.5C18.2 0 18.6667 0.466679 18.6667 1.1667C18.6667 1.86672 18.2 2.33339 17.5 2.33339Z" fill="white"/>
</svg>
