<svg xmlns="http://www.w3.org/2000/svg" width="40" height="40" viewBox="0 0 40 40" fill="none"><g clip-path="url(#clip0_8191_731)"><path d="M38.3609 4.59016H39.0166C39.3786 4.59016 39.6724 4.29705 39.6724 3.93443V1.31148C39.6724 0.948852 39.3786 0.655738 39.0166 0.655738H36.3937C36.0317 0.655738 35.738 0.948852 35.738 1.31148V1.96721H22.6232V0.655738C22.6232 0.293115 22.3294 0 21.9675 0H18.033C17.6711 0 17.3773 0.293115 17.3773 0.655738V1.96721H4.26255V1.31148C4.26255 0.948852 3.96878 0.655738 3.60681 0.655738H0.983863C0.621895 0.655738 0.328125 0.948852 0.328125 1.31148V3.93443C0.328125 4.29705 0.621895 4.59016 0.983863 4.59016H1.6396V35.4098H0.983863C0.621895 35.4098 0.328125 35.7029 0.328125 36.0656V38.6885C0.328125 39.0511 0.621895 39.3443 0.983863 39.3443H3.60681C3.96878 39.3443 4.26255 39.0511 4.26255 38.6885V38.0328H17.3773V39.3443C17.3773 39.7069 17.6711 40 18.033 40H21.9675C22.3294 40 22.6232 39.7069 22.6232 39.3443V38.0328H35.738V38.6885C35.738 39.0511 36.0317 39.3443 36.3937 39.3443H39.0166C39.3786 39.3443 39.6724 39.0511 39.6724 38.6885V36.0656C39.6724 35.7029 39.3786 35.4098 39.0166 35.4098H38.3609V20V4.59016ZM37.0494 1.96721H38.3609V3.27869H37.0494V1.96721ZM18.6888 1.31148H21.3117V2.73443V3.93443H18.6888V2.73443V2.62295V1.31148ZM1.6396 1.96721H2.95108V3.27869H1.6396V1.96721ZM2.95108 4.59016H3.60681C3.96878 4.59016 4.26255 4.29705 4.26255 3.93443V3.27869H13.1117C8.45796 5.11803 4.79501 8.75934 2.95108 13.2918V4.59016ZM2.95108 38.0328H1.6396V36.7213H2.95108V38.0328ZM3.60681 35.4098H2.95108V26.7082C4.79501 31.2407 8.45796 34.882 13.1117 36.7213H4.26255V36.0656C4.26255 35.7029 3.96878 35.4098 3.60681 35.4098ZM16.2298 15.6616L18.5517 22.0079C17.7196 22.6177 17.3439 23.7193 17.7163 24.7351C17.934 25.3311 18.3714 25.8072 18.9478 26.0748C19.2665 26.2229 19.6062 26.297 19.9471 26.297C20.2232 26.297 20.4993 26.2485 20.7655 26.1508C21.3622 25.9325 21.8376 25.4951 22.1052 24.9193C22.3727 24.3429 22.4003 23.6977 22.1819 23.1016C21.8107 22.0859 20.8134 21.4866 19.7839 21.5574L17.4606 15.2079L26.4894 22.3829C25.4232 23.8459 25.1275 25.5993 25.7058 27.1895L26.4658 29.2688L18.5314 32.1711L17.7701 30.0892C17.1826 28.4846 15.7858 27.3456 13.9635 26.9495L16.2298 15.6616ZM20.9504 23.5521C21.0481 23.819 21.0357 24.1089 20.9157 24.3666C20.7957 24.6249 20.5826 24.821 20.3144 24.9193C20.0475 25.0164 19.757 25.0052 19.4999 24.8846C19.2416 24.7646 19.0455 24.5515 18.9478 24.2839C18.7458 23.7318 19.0304 23.1187 19.5826 22.9167C19.7032 22.8728 19.8265 22.8511 19.9478 22.8511C20.3826 22.8518 20.7917 23.1207 20.9504 23.5521ZM18.9819 33.4039L26.9163 30.501L28.3937 34.5416C28.357 34.562 28.3209 34.5836 28.2842 34.6033C27.9019 34.8131 27.5144 35.0079 27.1203 35.1869C27.0698 35.2098 27.0193 35.2321 26.9681 35.2544C26.9419 35.2656 26.9157 35.2767 26.8901 35.2879C26.4934 35.461 26.0914 35.6203 25.6829 35.7626C25.6789 35.7639 25.6744 35.7659 25.6704 35.7672C25.6075 35.7895 25.5432 35.8092 25.4796 35.8308C25.0809 35.9639 24.6776 36.0813 24.2691 36.1843C24.1819 36.2066 24.0953 36.2282 24.0081 36.2485C23.5727 36.3508 23.1327 36.4387 22.6875 36.5069C22.6658 36.5102 22.6442 36.5121 22.6226 36.5154V35.4098C22.6226 35.0472 22.3288 34.7541 21.9668 34.7541H19.4757L18.9819 33.4039ZM21.3117 38.6885H18.6888V37.2656V36.0656H19.0166H21.3117V37.2656V37.377V38.6885ZM38.3609 38.0328H37.0494V37.377V36.7213H37.7052H38.3609V38.0328ZM37.0494 26.7364V35.4098H36.3937C36.0317 35.4098 35.738 35.7029 35.738 36.0656V36.7213H26.8789C26.8907 36.7167 26.9019 36.7108 26.9137 36.7056C27.3065 36.5482 27.6927 36.3725 28.075 36.1869C28.1753 36.1384 28.2744 36.0892 28.374 36.0387C28.7668 35.8393 29.1563 35.6302 29.538 35.4013C29.5386 35.4007 29.5393 35.4 29.5399 35.4C29.9347 35.1646 30.3144 34.9134 30.6862 34.6531C30.8048 34.5705 30.9183 34.4833 31.0344 34.398C31.2888 34.2111 31.538 34.0203 31.7806 33.8223C31.9032 33.722 32.0245 33.621 32.1445 33.518C32.3839 33.3128 32.6147 33.101 32.8416 32.8846C32.9406 32.7902 33.0422 32.6977 33.1393 32.6013C33.4521 32.2885 33.7557 31.9685 34.0429 31.6361C34.0704 31.6046 34.0947 31.5705 34.1216 31.5384C34.3806 31.2341 34.6285 30.922 34.8658 30.6026C34.9504 30.4885 35.0298 30.3718 35.1117 30.2564C35.2875 30.0079 35.4573 29.7561 35.6193 29.499C35.7006 29.3705 35.7806 29.242 35.858 29.1121C36.0193 28.8413 36.1721 28.5666 36.3183 28.2879C36.3773 28.1764 36.4396 28.0662 36.496 27.9534C36.6907 27.5626 36.8737 27.1659 37.0396 26.7613C37.0416 26.7528 37.0462 26.7449 37.0494 26.7364ZM29.536 33.8466L26.938 26.7397C26.4488 25.3954 26.8003 23.9325 27.9019 22.7239C28.0245 22.5895 28.0855 22.4105 28.0704 22.2295C28.056 22.0485 27.9668 21.882 27.8245 21.7685L16.6147 12.8603C16.5091 12.4629 16.2966 11.36 16.9248 10.5607C17.6403 9.65115 19.3019 9.31869 21.7281 9.59147C24.1629 9.87082 25.8527 9.49836 26.7557 8.49377C27.4652 7.70557 27.4816 6.71803 27.3799 6.25836L26.0999 6.54295C26.1012 6.54885 26.2088 7.14164 25.7812 7.6177C25.1944 8.26885 23.8068 8.50557 21.8763 8.28918C18.9307 7.95279 16.9196 8.44721 15.894 9.75082C14.858 11.0682 15.2114 12.7331 15.3694 13.2846L12.5439 27.36C12.5078 27.541 12.5491 27.7285 12.658 27.8774C12.7675 28.0262 12.9334 28.122 13.117 28.141C14.7983 28.32 16.0455 29.1948 16.5386 30.5416L18.0789 34.7541H18.033C17.6711 34.7541 17.3773 35.0472 17.3773 35.4098V36.5193C9.10255 35.2754 2.95108 28.2964 2.95108 20C2.95108 11.7036 9.10255 4.72459 17.3773 3.48066V4.59016C17.3773 4.95279 17.6711 5.2459 18.033 5.2459H21.9675C22.3294 5.2459 22.6232 4.95279 22.6232 4.59016V3.48066C30.898 4.72459 37.0494 11.7036 37.0494 20C37.0494 25.619 34.2534 30.7344 29.536 33.8466ZM26.8888 3.27869H35.738V3.93443C35.738 4.29705 36.0317 4.59016 36.3937 4.59016H37.0494V13.2918C35.2055 8.75934 31.5426 5.11803 26.8888 3.27869Z" fill="#060606"></path></g><defs><clipPath id="clip0_8191_731"><rect width="40" height="40" fill="white"></rect></clipPath></defs></svg>