<svg xmlns="http://www.w3.org/2000/svg" width="40" height="40" viewBox="0 0 40 40" fill="none"><g clip-path="url(#clip0_8191_566)"><path d="M39.8281 6.80066L33.2031 0.17175C33.1487 0.117301 33.0841 0.0741074 33.013 0.0446378C32.9419 0.0151682 32.8657 0 32.7887 0C32.7117 0 32.6355 0.0151682 32.5644 0.0446378C32.4932 0.0741074 32.4286 0.117301 32.3742 0.17175L30.7133 1.82878C30.472 2.07112 30.3302 2.39499 30.3157 2.73666C30.3013 3.07832 30.4152 3.41302 30.6352 3.67488L26.0844 5.42488C26.0064 5.45504 25.9357 5.50153 25.8771 5.56121C25.8185 5.6209 25.7733 5.69241 25.7445 5.77097L23.9477 10.703H2.14844C1.57889 10.7038 1.03291 10.9304 0.630176 11.3332C0.227445 11.7359 0.00082663 12.2819 0 12.8514L0 37.8514C0.00082663 38.421 0.227445 38.967 0.630176 39.3697C1.03291 39.7724 1.57889 39.9991 2.14844 39.9999H27.1484C27.718 39.9991 28.264 39.7724 28.6667 39.3697C29.0694 38.967 29.2961 38.421 29.2969 37.8514V16.0546L34.2289 14.2538C34.3075 14.225 34.379 14.1799 34.4387 14.1212C34.4984 14.0626 34.5448 13.992 34.575 13.9139L36.3281 9.3655C36.5898 9.58596 36.9246 9.70025 37.2664 9.68578C37.6082 9.67132 37.9322 9.52915 38.1742 9.28738L39.8281 7.62956C39.8826 7.57515 39.9258 7.51054 39.9552 7.43942C39.9847 7.36831 39.9999 7.29209 39.9999 7.21511C39.9999 7.13813 39.9847 7.06191 39.9552 6.99079C39.9258 6.91968 39.8826 6.85507 39.8281 6.80066ZM22.7625 14.9999C22.8304 15.1643 22.9299 15.3137 23.0555 15.4397L24.5609 16.9444C24.6867 17.0701 24.8358 17.1699 25 17.2382V35.703H4.29688V14.9999H22.7625ZM28.125 37.8514C28.1246 38.1103 28.0216 38.3585 27.8385 38.5415C27.6555 38.7246 27.4073 38.8276 27.1484 38.828H2.14844C1.88956 38.8276 1.64141 38.7246 1.45836 38.5415C1.27531 38.3585 1.17229 38.1103 1.17188 37.8514V12.8514C1.17229 12.5926 1.27531 12.3444 1.45836 12.1614C1.64141 11.9783 1.88956 11.8753 2.14844 11.8749H23.5156L22.8031 13.828H3.71094C3.55554 13.828 3.4065 13.8897 3.29662 13.9996C3.18673 14.1095 3.125 14.2585 3.125 14.4139V36.2889C3.125 36.4443 3.18673 36.5934 3.29662 36.7033C3.4065 36.8131 3.55554 36.8749 3.71094 36.8749H25.5859C25.7413 36.8749 25.8904 36.8131 26.0003 36.7033C26.1101 36.5934 26.1719 36.4443 26.1719 36.2889V17.1975L28.125 16.4843V37.8514ZM33.5766 13.2468L25.5945 16.1608C25.5595 16.1738 25.5216 16.1764 25.4851 16.1683C25.4487 16.1603 25.4154 16.142 25.3891 16.1155L25.0508 15.7811L29.1133 11.7186C29.5661 11.9714 30.095 12.0518 30.6024 11.9451C31.1099 11.8384 31.5616 11.5518 31.8743 11.1381C32.187 10.7244 32.3395 10.2116 32.3037 9.69433C32.2679 9.17702 32.0462 8.69012 31.6796 8.32345C31.3129 7.95678 30.826 7.7351 30.3087 7.69931C29.7914 7.66352 29.2786 7.81603 28.8649 8.12871C28.4512 8.44138 28.1646 8.89312 28.0579 9.40057C27.9512 9.90802 28.0317 10.4369 28.2844 10.8897L24.2219 14.9522L23.8844 14.6093C23.8579 14.583 23.8396 14.5496 23.8315 14.5132C23.8235 14.4767 23.8261 14.4388 23.8391 14.4038L26.7531 6.42175L31.5352 4.58269L35.4156 8.46316L33.5766 13.2468ZM29.4703 9.14831C29.6069 9.01176 29.7809 8.91878 29.9703 8.88112C30.1598 8.84346 30.3561 8.86282 30.5345 8.93674C30.713 9.01066 30.8655 9.13583 30.9728 9.29642C31.0801 9.45701 31.1373 9.6458 31.1373 9.83894C31.1373 10.0321 31.0801 10.2209 30.9728 10.3815C30.8655 10.5421 30.713 10.6672 30.5345 10.7411C30.3561 10.8151 30.1598 10.8344 29.9703 10.7968C29.7809 10.7591 29.6069 10.6661 29.4703 10.5296C29.3791 10.4391 29.3068 10.3316 29.2574 10.213C29.208 10.0945 29.1826 9.96735 29.1826 9.83894C29.1826 9.71053 29.208 9.58339 29.2574 9.46485C29.3068 9.34632 29.3791 9.23874 29.4703 9.14831ZM37.3438 8.45769C37.3257 8.47585 37.3042 8.49027 37.2805 8.5001C37.2569 8.50994 37.2315 8.515 37.2059 8.515C37.1802 8.515 37.1549 8.50994 37.1312 8.5001C37.1075 8.49027 37.086 8.47585 37.068 8.45769L31.5422 2.93347C31.524 2.91539 31.5096 2.89391 31.4998 2.87024C31.4899 2.84658 31.4849 2.8212 31.4849 2.79558C31.4849 2.76995 31.4899 2.74458 31.4998 2.72091C31.5096 2.69725 31.524 2.67576 31.5422 2.65769L32.7852 1.41472L38.5852 7.21472L37.3438 8.45769Z" fill="#060606"></path><path d="M9.39622 27.0711C9.43078 27.1943 9.50466 27.3029 9.60662 27.3804C9.70858 27.4578 9.83304 27.4998 9.96106 27.5H19.3361C19.4641 27.4998 19.5885 27.4578 19.6905 27.3804C19.7925 27.3029 19.8663 27.1943 19.9009 27.0711L21.4634 21.4461C21.4932 21.3388 21.4919 21.2253 21.4595 21.1188C21.4272 21.0123 21.3652 20.9172 21.2807 20.8447C21.1963 20.7722 21.093 20.7252 20.9828 20.7092C20.8727 20.6933 20.7602 20.709 20.6587 20.7547L17.2157 22.2976L15.1564 18.8039C15.1046 18.7161 15.0308 18.6433 14.9423 18.5928C14.8538 18.5422 14.7536 18.5156 14.6517 18.5156C14.5498 18.5156 14.4496 18.5422 14.3611 18.5928C14.2726 18.6433 14.1988 18.7161 14.147 18.8039L12.0845 22.2976L8.64153 20.7547C8.54 20.709 8.42758 20.6933 8.31743 20.7092C8.20727 20.7252 8.10393 20.7722 8.01951 20.8447C7.93509 20.9172 7.87307 21.0123 7.84072 21.1188C7.80837 21.2253 7.80703 21.3388 7.83684 21.4461L9.39622 27.0711ZM12.0798 23.5812C12.211 23.6404 12.3595 23.6493 12.4968 23.6061C12.6341 23.5628 12.7507 23.4706 12.8243 23.3469L14.6486 20.2562L16.4728 23.3469C16.5465 23.4704 16.6631 23.5626 16.8004 23.6058C16.9377 23.649 17.0861 23.6403 17.2173 23.5812L20.0001 22.3312L18.8907 26.3281H10.4064L9.297 22.3336L12.0798 23.5812Z" fill="#060606"></path><path d="M19.3359 28.6719H9.96094C9.80554 28.6719 9.6565 28.7336 9.54662 28.8435C9.43673 28.9534 9.375 29.1024 9.375 29.2578V30.8203C9.37541 31.1828 9.51959 31.5303 9.7759 31.7866C10.0322 32.0429 10.3797 32.1871 10.7422 32.1875H18.5547C18.9172 32.1871 19.2647 32.0429 19.521 31.7866C19.7773 31.5303 19.9215 31.1828 19.9219 30.8203V29.2578C19.9219 29.1024 19.8601 28.9534 19.7503 28.8435C19.6404 28.7336 19.4913 28.6719 19.3359 28.6719ZM18.75 30.8203C18.75 30.8721 18.7294 30.9218 18.6928 30.9584C18.6562 30.995 18.6065 31.0156 18.5547 31.0156H10.7422C10.6904 31.0156 10.6407 30.995 10.6041 30.9584C10.5675 30.9218 10.5469 30.8721 10.5469 30.8203V29.8438H18.75V30.8203Z" fill="#060606"></path></g><defs><clipPath id="clip0_8191_566"><rect width="40" height="40" fill="white"></rect></clipPath></defs></svg>