<svg xmlns="http://www.w3.org/2000/svg" width="40" height="40" viewBox="0 0 40 40" fill="none"><g clip-path="url(#clip0_8191_706)"><path d="M36.5726 39.9999H4.22465C3.77772 39.9999 3.41602 39.6379 3.41602 39.1913V6.8433C3.41602 6.39671 3.77772 6.03467 4.22465 6.03467H36.5726C37.0192 6.03467 37.3813 6.39671 37.3813 6.8433V39.1913C37.3813 39.6379 37.0192 39.9999 36.5726 39.9999ZM5.03328 38.3827H35.764V7.65193H5.03328V38.3827Z" fill="#060606"></path><path d="M35.7639 7.65195H7.45939C7.01246 7.65195 6.65042 7.28991 6.65042 6.84332C6.65042 6.39673 7.01246 6.03469 7.45939 6.03469H35.7639C36.2074 6.03469 36.6127 5.85639 36.9056 5.53287C37.2911 5.10674 37.4613 4.45322 37.3852 3.69232C37.3825 3.66538 37.3811 3.63845 37.3811 3.61152C37.3811 2.58437 36.6073 1.74846 35.6562 1.74846H8.67472C8.93517 2.30755 9.07665 2.943 9.07665 3.60845C9.07665 4.05504 8.71461 4.41708 8.26802 4.41708C7.82109 4.41708 7.45939 4.05504 7.45939 3.60845C7.45939 2.76062 7.11371 2.0096 6.53451 1.59949C6.24746 1.39597 6.12474 1.02983 6.23144 0.694379C6.33849 0.358585 6.65008 0.130859 7.00223 0.130859H35.6562C37.4858 0.130859 38.9773 1.66971 38.9984 3.57027C39.1102 4.77606 38.7935 5.85707 38.1049 6.61798C37.5015 7.28479 36.67 7.65195 35.7639 7.65195Z" fill="#060606"></path><path d="M4.22412 23.0173H1.79789C1.3513 23.0173 0.989258 22.6553 0.989258 22.2083V4.55891C0.989258 3.19494 1.52585 1.92267 2.46164 1.06836C3.32004 0.284954 4.44026 -0.0883387 5.61707 0.0176834L7.06627 0.133592C7.21149 0.145183 7.35058 0.195637 7.46956 0.279841C8.47558 0.992678 9.07625 2.23699 9.07625 3.60846C9.07625 4.05505 8.71421 4.41709 8.26762 4.41709C7.82103 4.41709 7.45899 4.05505 7.45899 3.60846C7.45899 2.84176 7.17604 2.15415 6.694 1.72631L5.48446 1.62949C5.48139 1.62949 5.47832 1.62915 5.47525 1.62881C4.74469 1.56233 4.07958 1.78154 3.5522 2.2629C2.95118 2.81142 2.60652 3.64834 2.60652 4.55891V21.4001H4.22412C4.67071 21.4001 5.03276 21.7618 5.03276 22.2087C5.03276 22.6553 4.67071 23.0173 4.22412 23.0173Z" fill="#060606"></path><path d="M6.92784 7.65705C6.65478 7.65705 6.38853 7.51864 6.23614 7.26875C6.00399 6.88694 6.12501 6.38955 6.50648 6.1574C6.98682 5.8649 7.45864 4.60218 7.45864 3.60844C7.45864 3.16185 7.82034 2.7998 8.26727 2.7998C8.71386 2.7998 9.0759 3.16185 9.0759 3.60844C9.0759 4.72116 8.60647 6.77239 7.3475 7.53875C7.21591 7.61887 7.07103 7.65705 6.92784 7.65705Z" fill="#060606"></path><path d="M6.92784 7.65705C6.65478 7.65705 6.38853 7.51864 6.23614 7.26875C6.00399 6.88694 6.12501 6.38955 6.50648 6.1574C6.98682 5.8649 7.45864 4.60218 7.45864 3.60844C7.45864 3.16185 7.82034 2.7998 8.26727 2.7998C8.71386 2.7998 9.0759 3.16185 9.0759 3.60844C9.0759 4.72116 8.60647 6.77239 7.3475 7.53875C7.21591 7.61887 7.07103 7.65705 6.92784 7.65705Z" fill="#060606"></path><path d="M4.22465 23.0173C3.77772 23.0173 3.41602 22.6552 3.41602 22.2083V6.8433C3.41602 6.39671 3.77772 6.03467 4.22465 6.03467C4.67124 6.03467 5.03328 6.39671 5.03328 6.8433V22.2087C5.03328 22.6552 4.67124 23.0173 4.22465 23.0173Z" fill="#060606"></path><path d="M31.7197 10.0781H33.337V11.6954H31.7197V10.0781Z" fill="#060606"></path><path d="M31.7197 12.5039H33.337V14.1215H31.7197V12.5039Z" fill="#060606"></path><path d="M31.7197 14.9302H33.337V16.5474H31.7197V14.9302Z" fill="#060606"></path><path d="M31.7197 17.3564H33.337V18.974H31.7197V17.3564Z" fill="#060606"></path><path d="M31.7197 19.7827H33.337V21.4003H31.7197V19.7827Z" fill="#060606"></path><path d="M28.4855 26.252H7.45936C7.01243 26.252 6.65039 25.89 6.65039 25.4434V10.078C6.65039 9.63109 7.01243 9.26904 7.45936 9.26904H28.4855C28.9321 9.26904 29.2941 9.63109 29.2941 10.078V25.4434C29.2941 25.8896 28.9321 26.252 28.4855 26.252ZM8.26799 24.6344H27.6769V10.8866H8.26799V24.6344Z" fill="#060606"></path><path d="M24.4433 26.2523C24.443 26.2523 24.4423 26.2523 24.442 26.2523H7.45936C7.01243 26.2523 6.65039 25.8902 6.65039 25.4437V22.4454C6.65039 22.1975 6.76425 21.9633 6.95925 21.8099L13.4286 16.7209C13.7198 16.4921 14.1285 16.4901 14.4217 16.7154L24.9032 24.7782C25.1139 24.9241 25.2523 25.1675 25.2523 25.4437C25.2523 25.8899 24.8903 26.2523 24.4433 26.2523ZM8.26799 24.6347H22.0642L13.9342 18.3811L8.26799 22.8381V24.6347Z" fill="#060606"></path><path d="M28.4852 26.2524H24.4417C24.2617 26.2524 24.0871 26.1924 23.945 26.082L16.6669 20.4212C16.4617 20.2617 16.3458 20.0131 16.355 19.7534C16.3645 19.4933 16.4985 19.2539 16.7147 19.1097L21.5668 15.8752C21.8504 15.686 22.222 15.6952 22.4958 15.897L28.9652 20.6704C29.1721 20.8228 29.2938 21.0645 29.2938 21.3212V25.4438C29.2938 25.89 28.9317 26.2524 28.4852 26.2524ZM24.7192 24.6348H27.6765V21.7296L21.9919 17.5354L18.5457 19.8331L24.7192 24.6348Z" fill="#060606"></path><path d="M17.114 16.3109C15.749 16.3109 14.6387 15.2755 14.6387 14.0033C14.6387 12.7306 15.749 11.6953 17.114 11.6953C18.479 11.6953 19.5897 12.7306 19.5897 14.0033C19.5897 15.2755 18.479 16.3109 17.114 16.3109ZM17.114 13.3126C16.649 13.3126 16.2559 13.6289 16.2559 14.0033C16.2559 14.3772 16.649 14.6932 17.114 14.6932C17.5793 14.6932 17.9721 14.3772 17.9721 14.0033C17.9721 13.6289 17.5793 13.3126 17.114 13.3126Z" fill="#060606"></path><path d="M23.4155 33.5307H7.45936C7.01243 33.5307 6.65039 33.1683 6.65039 32.7217C6.65039 32.2751 7.01243 31.9131 7.45936 31.9131H23.4155C23.8621 31.9131 24.2241 32.2751 24.2241 32.7217C24.2241 33.1683 23.8621 33.5307 23.4155 33.5307Z" fill="#060606"></path><path d="M17.5369 30.2958H7.45936C7.01243 30.2958 6.65039 29.9338 6.65039 29.4872C6.65039 29.0403 7.01243 28.6782 7.45936 28.6782H17.5369C17.9835 28.6782 18.3455 29.0403 18.3455 29.4872C18.3455 29.9338 17.9835 30.2958 17.5369 30.2958Z" fill="#060606"></path><path d="M29.2941 36.7652H7.45936C7.01243 36.7652 6.65039 36.4032 6.65039 35.9566C6.65039 35.51 7.01243 35.1479 7.45936 35.1479H29.2941C29.7407 35.1479 30.1027 35.51 30.1027 35.9566C30.1027 36.4032 29.7407 36.7652 29.2941 36.7652Z" fill="#060606"></path></g><defs><clipPath id="clip0_8191_706"><rect width="40" height="40" fill="white"></rect></clipPath></defs></svg>