<svg xmlns="http://www.w3.org/2000/svg" width="64" height="64" viewBox="0 0 64 64" role="img" aria-label="GitHub">
  <rect width="64" height="64" rx="14" fill="#12141a"/>
  <rect x="2" y="2" width="60" height="60" rx="12" fill="none" stroke="#BFF747" stroke-width="2"/>
  <g transform="translate(12,12) scale(1.67)" fill="#FFFFFF">
    <path d="M12 0C5.37 0 0 5.37 0 12c0 5.3 3.438 9.8 8.205 11.387.6.113.82-.258.82-.577 0-.285-.01-1.04-.015-2.04-3.338.724-4.042-1.61-4.042-1.61-.546-1.387-1.333-1.756-1.333-1.756-1.09-.745.083-.73.083-.73 1.205.085 1.84 1.237 1.84 1.237 1.07 1.834 2.807 1.304 3.492.997.108-.775.418-1.305.762-1.606-2.665-.303-5.466-1.332-5.466-5.93 0-1.31.468-2.38 1.236-3.22-.124-.303-.535-1.524.117-3.176 0 0 1.008-.322 3.3 1.23a11.5 11.5 0 0 1 3-.404c1.02.005 2.045.138 3 .404 2.29-1.552 3.297-1.23 3.297-1.23.653 1.652.242 2.873.118 3.176.77.84 1.235 1.91 1.235 3.22 0 4.61-2.805 5.624-5.478 5.92.43.37.823 1.102.823 2.222 0 1.606-.015 2.898-.015 3.293 0 .322.216.694.825.576C20.565 21.796 24 17.298 24 12 24 5.37 18.63 0 12 0z"/>
  </g>
</svg>
