<svg xmlns="http://www.w3.org/2000/svg" viewBox="0 0 24 24" role="img" aria-label="Gmail">
  <path fill="#EA4335" d="M24 5.457v13.909c0 .904-.732 1.636-1.636 1.636h-3.819V11.73L12 16.64l-6.545-4.91v9.273H1.636A1.636 1.636 0 0 1 0 19.366V5.457c0-2.023 2.309-3.178 3.927-1.964L5.455 4.64 12 9.548l6.545-4.91 1.528-1.145C21.69 2.28 24 3.434 24 5.457z"/>
  <path fill="#FBBC04" d="M12 9.548 1.636 3.493v11.874c0 .904.732 1.636 1.636 1.636h3.819V11.73L12 16.64l6.545-4.91v5.274h3.819c.904 0 1.636-.732 1.636-1.636V3.493L12 9.548z"/>
  <path fill="#34A853" d="M12 9.548 24 3.493v11.874c0 .904-.732 1.636-1.636 1.636h-3.819V11.73L12 16.64 9.455 14.73 12 9.548z"/>
  <path fill="#C5221F" d="M12 9.548 1.636 3.493 5.455 4.64 12 9.548 18.545 4.64l3.819-1.147C21.69 2.28 19.41 1.09 17.09 2.09L12 5.5 6.91 2.09C4.59 1.09 2.31 2.28 1.636 3.493L12 9.548z"/>
</svg>
