<svg xmlns="http://www.w3.org/2000/svg" width="64" height="64" viewBox="0 0 64 64" role="img" aria-label="MongoDB">
  <rect width="64" height="64" rx="14" fill="#12141a"/>
  <rect x="2" y="2" width="60" height="60" rx="12" fill="none" stroke="#BFF747" stroke-width="2"/>
  <g transform="translate(18,10) scale(1.17)">
    <path fill="#47A248" d="M15.9 0C15.7 2.5 14.5 4.8 12.7 6.5 10.2 9 8.8 12.2 8.8 15.6v7.2c0 .8.6 1.4 1.4 1.4h10.6c.8 0 1.4-.6 1.4-1.4v-7.2c0-3.4-1.4-6.6-3.9-9.1C17.5 4.8 16.3 2.5 16.1 0h-.2z"/>
    <path fill="#6FCF71" d="M16 0c.2 2.3 1.3 4.4 2.9 6 2.2 2.2 3.5 5.1 3.7 8.2v8.8c0 .5-.4.9-.9.9h-11c-.5 0-.9-.4-.9-.9v-8.8c.2-3.1 1.5-6 3.7-8.2C14.7 4.4 15.8 2.3 16 0z"/>
  </g>
</svg>
