<svg xmlns="http://www.w3.org/2000/svg" width="48" height="48" viewBox="0 0 48 48" role="img" aria-label="Next.js">
  <rect x="1" y="1" width="46" height="46" rx="10" fill="#12141a" stroke="#BFF747" stroke-width="1.5"/>
  <path fill="#FFFFFF" transform="translate(12,12) scale(1.1)" d="M11.572 0c-.176 0-.31.001-.358.007a19.76 19.76 0 0 1-.364.033C7.443.346 4.25 2.185 2.228 5.012a11.875 11.875 0 0 0-2.119 5.243c-.096.659-.108.854-.108 1.747s.012 1.089.108 1.748c.652 4.506 3.86 8.292 8.209 9.695.779.25 1.6.422 2.534.525.363.04 1.935.04 2.299 0 1.611-.178 2.977-.577 4.323-1.264.207-.106.247-.134.219-.158-.02-.013-.9-1.193-1.955-2.62l-1.919-2.592-2.404-3.558a338.739 338.739 0 0 0-2.422-3.556c-.009-.002-.018 1.579-.023 3.51-.007 3.38-.01 3.515-.052 3.595-.072.127-.206.193-.41.193-.235 0-.272-.035-.31-.218-.031-.15-.038-1.446-.035-4.299 0-2.294.008-4.092.017-4.272.041-.494.239-.76.605-.86.174-.045 5.768-.054 6.014-.01.302.057.492.243.558.553.015.07.019 1.793.015 5.683l-.008 5.576.042.216c.106.373.372.573.729.573.393 0 .658-.215.79-.636l.045-.149 1.016-6.385a6.66 6.66 0 0 1 1.22-2.954 11.37 11.37 0 0 1 2.668-2.713C22.422 5.118 19.91 3.68 17.11 3.152c-.367-.067-1.14-.133-1.477-.14L11.572 0z"/>
</svg>
