<svg xmlns="http://www.w3.org/2000/svg" width="48" height="48" viewBox="0 0 48 48" role="img" aria-label="Node.js">
  <rect x="1" y="1" width="46" height="46" rx="10" fill="#12141a" stroke="#BFF747" stroke-width="1.5"/>
  <path fill="#339933" d="M23.6 10.2 13.4 16v11.6l10.2 5.9 10.2-5.9V16L23.6 10.2zm0 2.3 8 4.6v9.2l-8 4.6-8-4.6v-9.2l8-4.6z"/>
  <path fill="#339933" d="M23.6 16.8c-2.9 0-4.8 1.5-4.8 4 0 2.7 1.5 3.5 3.8 4.1l1.1.3c1.4.4 1.9.7 1.9 1.4 0 .7-.6 1.1-1.7 1.1-1.2 0-1.7-.4-2-1.4l-2.5.4c.4 2 1.8 3.1 4.5 3.1 2.7 0 4.5-1.4 4.5-3.9 0-2.5-1.4-3.4-3.9-4.1l-1.1-.3c-1.3-.3-1.8-.6-1.8-1.3 0-.6.5-1 1.5-1 1 0 1.5.4 1.7 1.2l2.4-.4c-.3-1.7-1.6-2.7-4.1-2.7z"/>
</svg>
