<svg xmlns="http://www.w3.org/2000/svg" width="48" height="48" viewBox="0 0 48 48" role="img" aria-label="Python">
  <rect x="1" y="1" width="46" height="46" rx="10" fill="#12141a" stroke="#BFF747" stroke-width="1.5"/>
  <path fill="#3776AB" d="M24.1 9c-5.2 0-4.9 2.3-4.9 2.3l.01 2.4h5v.7H15.6S12 14.2 12 19.8c0 5.6 3.1 5.4 3.1 5.4h1.9v-2.6s-.1-3.1 3-3.1h5.2s2.9.05 2.9-2.8V11.4S28.5 9 24.1 9zm-2.7 1.6c.5 0 .9.4.9.9s-.4.9-.9.9-.9-.4-.9-.9.4-.9.9-.9z"/>
  <path fill="#FFD43B" d="M23.9 39c5.2 0 4.9-2.3 4.9-2.3l-.01-2.4h-5v-.7h8.61S36 33.8 36 28.2c0-5.6-3.1-5.4-3.1-5.4h-1.9v2.6s.1 3.1-3 3.1h-5.2s-2.9-.05-2.9 2.8v5.3S19.5 39 23.9 39zm2.7-1.6c-.5 0-.9-.4-.9-.9s.4-.9.9-.9.9.4.9.9-.4.9-.9.9z"/>
</svg>
