<svg width="40" height="40" viewBox="0 0 40 40" fill="none" xmlns="http://www.w3.org/2000/svg">
<g clip-path="url(#clip0_8251_1093)">
<path d="M14.1377 22.3112C13.2601 22.8675 12.2615 23.2041 11.2263 23.2926C10.9105 22.1385 9.86349 21.3369 8.66699 21.3332H5.33366C3.8609 21.3332 2.66699 22.5271 2.66699 23.9999V37.3332C2.66699 38.806 3.8609 39.9999 5.33366 39.9999H8.66699C9.87395 39.9951 10.9272 39.1803 11.235 38.0132C11.8011 38.043 12.3559 38.1829 12.8683 38.4252C13.1257 38.5472 13.3717 38.6919 13.6183 38.8345C13.9864 39.059 14.3698 39.2573 14.7657 39.4279C15.7979 39.8218 16.8956 40.0159 18.0003 39.9999H30.0003C30.9862 39.9994 31.8913 39.455 32.3539 38.5845C32.8165 37.7139 32.761 36.6591 32.2097 35.8419C32.9912 35.5729 33.6029 34.9553 33.8642 34.1712C34.1256 33.3871 34.0068 32.526 33.543 31.8419C34.523 31.5065 35.2175 30.6306 35.3208 29.5999C35.424 28.5693 34.917 27.573 34.023 27.0499C34.4362 26.5732 34.6647 25.9641 34.667 25.3332C34.667 23.8605 33.4731 22.6666 32.0003 22.6666H23.579C24.6217 20.6812 26.5163 16.2432 24.6723 13.0152C23.861 11.5972 22.1657 10.4879 20.365 11.4052C18.4863 12.3599 18.907 14.2459 19.1097 15.1512C19.6263 17.4739 17.9537 19.8832 14.1377 22.3112ZM8.66699 38.6665H5.33366C4.59728 38.6665 4.00033 38.0696 4.00033 37.3332V23.9999C4.00033 23.2635 4.59728 22.6666 5.33366 22.6666H8.66699C9.40337 22.6666 10.0003 23.2635 10.0003 23.9999V37.3332C10.0003 38.0696 9.40337 38.6665 8.66699 38.6665ZM20.411 14.8612C20.1097 13.5126 20.245 12.9619 20.9697 12.5946C22.1457 11.9946 23.1237 12.9946 23.515 13.6779C25.5077 17.1672 21.9077 22.9186 21.871 22.9766C21.741 23.1818 21.733 23.4415 21.85 23.6544C21.9671 23.8673 22.1907 23.9997 22.4337 23.9999H32.0003C32.7367 23.9999 33.3337 24.5968 33.3337 25.3332C33.3337 26.0696 32.7367 26.6666 32.0003 26.6666H28.0003C27.6321 26.6666 27.3337 26.965 27.3337 27.3332C27.3337 27.7014 27.6321 27.9999 28.0003 27.9999H32.667C33.4034 27.9999 34.0003 28.5968 34.0003 29.3332C34.0003 30.0696 33.4034 30.6666 32.667 30.6666H28.0003C27.6321 30.6666 27.3337 30.965 27.3337 31.3332C27.3337 31.7014 27.6321 31.9999 28.0003 31.9999H31.3337C32.07 31.9999 32.667 32.5968 32.667 33.3332C32.667 34.0696 32.07 34.6665 31.3337 34.6665H28.0003C27.6321 34.6665 27.3337 34.965 27.3337 35.3332C27.3337 35.7014 27.6321 35.9999 28.0003 35.9999H30.0003C30.7367 35.9999 31.3337 36.5968 31.3337 37.3332C31.3337 38.0696 30.7367 38.6665 30.0003 38.6665H18.0003C17.0674 38.6828 16.1398 38.5218 15.267 38.1919C14.9291 38.0445 14.6019 37.8739 14.2877 37.6812C14.0103 37.5199 13.7317 37.3599 13.443 37.2219C12.7806 36.9103 12.0645 36.7293 11.3337 36.6886V24.6339C12.5862 24.5229 13.7935 24.1113 14.853 23.4339C19.193 20.6752 21.063 17.7906 20.411 14.8612Z" fill="#BFF747"/>
<path d="M28.007 0.647118V0.661118V0.666451C28.007 0.911785 27.9463 6.66645 22.6676 6.66645C22.2995 6.66645 22.001 6.96493 22.001 7.33312C22.001 7.70131 22.2995 7.99979 22.6676 7.99979C27.9256 7.99979 28.0063 13.7558 28.007 13.9998C28.002 14.368 28.2965 14.6705 28.6646 14.6755C29.0328 14.6804 29.3353 14.386 29.3403 14.0178V14.0038V13.9998C29.3403 13.7545 29.401 7.99979 34.6803 7.99979C35.0485 7.99979 35.347 7.70131 35.347 7.33312C35.347 6.96493 35.0485 6.66645 34.6803 6.66645C29.4216 6.66645 29.3416 0.910451 29.3403 0.666451C29.3453 0.298262 29.0508 -0.00424477 28.6826 -0.00921533C28.3145 -0.0141859 28.0119 0.280262 28.007 0.648451V0.647118ZM31.6403 7.33312C30.2751 8.05326 29.2199 9.24715 28.673 10.6905C28.1263 9.24696 27.071 8.05297 25.7056 7.33312C27.071 6.61327 28.1263 5.41928 28.673 3.97579C29.2199 5.41909 30.2751 6.61297 31.6403 7.33312Z" fill="#BFF747"/>
<path d="M11.3333 8.66623V8.66223C11.3322 8.29404 11.0329 7.99646 10.6647 7.99756C10.2965 7.99867 9.9989 8.29804 10 8.66623C10 8.82956 9.944 12.6662 6.66667 12.6662C6.29848 12.6662 6 12.9647 6 13.3329C6 13.7011 6.29848 13.9996 6.66667 13.9996C9.944 13.9996 10 17.8376 10 17.9996V18.0036C10.0011 18.3718 10.3005 18.6693 10.6687 18.6682C11.0369 18.6671 11.3344 18.3678 11.3333 17.9996C11.3333 17.8362 11.3893 13.9996 14.6667 13.9996C15.0349 13.9996 15.3333 13.7011 15.3333 13.3329C15.3333 12.9647 15.0349 12.6662 14.6667 12.6662C11.3893 12.6662 11.3333 8.82823 11.3333 8.66623ZM12.2293 13.3329C11.5543 13.7832 11.0142 14.4083 10.6667 15.1416C10.3192 14.4083 9.77905 13.7832 9.104 13.3329C9.77919 12.8828 10.3193 12.2576 10.6667 11.5242C11.014 12.2576 11.5541 12.8828 12.2293 13.3329Z" fill="#BFF747"/>
<path d="M34.0007 14C33.6325 14 33.334 14.2985 33.334 14.6667V16C33.334 16.3682 33.6325 16.6667 34.0007 16.6667C34.3688 16.6667 34.6673 16.3682 34.6673 16V14.6667C34.6673 14.2985 34.3688 14 34.0007 14Z" fill="#BFF747"/>
<path d="M34.0007 20.6667C34.3688 20.6667 34.6673 20.3682 34.6673 20V18.6667C34.6673 18.2985 34.3688 18 34.0007 18C33.6325 18 33.334 18.2985 33.334 18.6667V20C33.334 20.3682 33.6325 20.6667 34.0007 20.6667Z" fill="#BFF747"/>
<path d="M35.3337 17.9998H36.667C37.0352 17.9998 37.3337 17.7014 37.3337 17.3332C37.3337 16.965 37.0352 16.6665 36.667 16.6665H35.3337C34.9655 16.6665 34.667 16.965 34.667 17.3332C34.667 17.7014 34.9655 17.9998 35.3337 17.9998Z" fill="#BFF747"/>
<path d="M32.667 17.9998C33.0352 17.9998 33.3337 17.7014 33.3337 17.3332C33.3337 16.965 33.0352 16.6665 32.667 16.6665H31.3337C30.9655 16.6665 30.667 16.965 30.667 17.3332C30.667 17.7014 30.9655 17.9998 31.3337 17.9998H32.667Z" fill="#BFF747"/>
<path d="M17.1957 6.13791L18.1957 7.13791C18.4573 7.39056 18.8731 7.38694 19.1303 7.12979C19.3874 6.87263 19.391 6.45683 19.1384 6.19524L18.1384 5.19524C17.971 5.02194 17.7231 4.95243 17.4901 5.01344C17.257 5.07445 17.0749 5.25648 17.0139 5.48957C16.9529 5.72266 17.0224 5.97052 17.1957 6.13791Z" fill="#BFF747"/>
<path d="M15.1959 4.13762C15.4575 4.39027 15.8733 4.38666 16.1305 4.1295C16.3876 3.87234 16.3912 3.45654 16.1386 3.19495L15.1386 2.19495C14.877 1.94231 14.4612 1.94592 14.2041 2.20307C13.9469 2.46023 13.9433 2.87603 14.1959 3.13762L15.1959 4.13762Z" fill="#BFF747"/>
<path d="M14.1952 7.13791C14.4555 7.39816 14.8775 7.39816 15.1379 7.13791L16.1379 6.13791C16.3112 5.97052 16.3807 5.72266 16.3197 5.48957C16.2586 5.25648 16.0766 5.07445 15.8435 5.01344C15.6104 4.95243 15.3626 5.02194 15.1952 5.19524L14.1952 6.19524C13.9349 6.45557 13.9349 6.87757 14.1952 7.13791Z" fill="#BFF747"/>
<path d="M17.6665 4.33324C17.8433 4.3332 18.0129 4.26294 18.1379 4.13791L19.1379 3.13791C19.3112 2.97052 19.3807 2.72266 19.3197 2.48957C19.2587 2.25648 19.0766 2.07445 18.8435 2.01344C18.6105 1.95243 18.3626 2.02194 18.1952 2.19524L17.1952 3.19524C17.0046 3.3859 16.9476 3.6726 17.0508 3.92168C17.1539 4.17076 17.3969 4.33318 17.6665 4.33324Z" fill="#BFF747"/>
</g>
<defs>
<clipPath id="clip0_8251_1093">
<rect width="40" height="40" fill="white"/>
</clipPath>
</defs>
</svg>
