<svg width="40" height="40" viewBox="0 0 40 40" fill="none" xmlns="http://www.w3.org/2000/svg">
<path d="M20.0309 8.62158C14.3695 8.62158 9.74414 13.2469 9.74414 18.9084C9.74414 21.8686 11.0392 24.7178 13.2224 26.6419C14.8505 28.2701 14.7025 31.7483 14.6655 31.7853C14.6655 31.9703 14.7025 32.1183 14.8505 32.2664C14.9615 32.3774 15.1465 32.4514 15.2946 32.4514H24.7303C24.9153 32.4514 25.0633 32.3774 25.1743 32.2664C25.2853 32.1553 25.3593 31.9703 25.3593 31.7853C25.3593 31.7483 25.1743 28.2701 26.8024 26.6419C26.8394 26.6049 26.8764 26.5679 26.9134 26.5309C29.0596 24.5698 30.3177 21.7946 30.3177 18.9084C30.3177 13.2469 25.6923 8.62158 20.0309 8.62158ZM25.9514 25.6799C25.9144 25.7169 25.8403 25.7909 25.8403 25.8279C24.3972 27.382 24.1382 29.9352 24.1012 31.1563H15.9236C15.8866 29.9352 15.6276 27.271 14.0735 25.6799C12.1123 23.9777 10.9652 21.4985 10.9652 18.8714C10.9652 13.876 14.9985 9.84267 19.9939 9.84267C24.9893 9.84267 29.0226 13.876 29.0226 18.8714C29.0226 21.4985 27.9125 23.9777 25.9514 25.6799Z" fill="#BFF747"/>
<path d="M19.9933 11.249C19.6603 11.249 19.3643 11.545 19.3643 11.8781C19.3643 12.2111 19.6603 12.5071 19.9933 12.5071C23.7306 12.5071 26.7278 15.5413 26.7278 19.2416C26.7278 19.5746 27.0238 19.8707 27.3569 19.8707C27.6899 19.8707 27.9859 19.5746 27.9859 19.2416C28.0229 14.8383 24.4336 11.249 19.9933 11.249Z" fill="#BFF747"/>
<path d="M24.1008 33.1543H15.8861C15.0351 33.1543 14.332 33.8574 14.332 34.7084C14.332 35.5595 15.0351 36.2625 15.8861 36.2625H24.0638C24.9518 36.2255 25.6549 35.5595 25.6549 34.7084C25.6549 33.8574 24.9518 33.1543 24.1008 33.1543ZM24.1008 34.9674H15.8861C15.7381 34.9674 15.5901 34.8564 15.5901 34.6714C15.5901 34.4864 15.7011 34.3754 15.8861 34.3754H24.0638C24.2118 34.3754 24.3598 34.4864 24.3598 34.6714C24.3598 34.8564 24.2488 34.9674 24.1008 34.9674Z" fill="#BFF747"/>
<path d="M22.8793 36.8916H17.1069C16.2558 36.8916 15.5527 37.5947 15.5527 38.4457C15.5527 39.2968 16.2558 39.9998 17.1069 39.9998H22.8793C23.7303 39.9998 24.4334 39.2968 24.4334 38.4457C24.4334 37.5577 23.7303 36.8916 22.8793 36.8916ZM22.8793 38.7047H17.1069C16.9588 38.7047 16.8108 38.5937 16.8108 38.4087C16.8108 38.2237 16.9218 38.1127 17.1069 38.1127H22.8793C23.0273 38.1127 23.1753 38.2237 23.1753 38.4087C23.1753 38.5937 23.0273 38.7047 22.8793 38.7047Z" fill="#BFF747"/>
<path d="M19.9933 5.55042C20.3633 5.55042 20.6224 5.25439 20.6224 4.92137V0.629047C20.6224 0.296022 20.3263 0 19.9933 0C19.6603 0 19.3643 0.296022 19.3643 0.629047V4.92137C19.3643 5.25439 19.6603 5.55042 19.9933 5.55042Z" fill="#BFF747"/>
<path d="M30.4655 3.18203C30.1695 2.96001 29.7995 3.07102 29.6145 3.33004L27.2463 6.88231C27.0243 7.17833 27.0983 7.58536 27.3943 7.77037C27.5053 7.84438 27.6163 7.88138 27.7273 7.88138C27.9493 7.88138 28.1343 7.77037 28.2454 7.58536L30.6135 4.03309C30.8355 3.77407 30.7615 3.36704 30.4655 3.18203Z" fill="#BFF747"/>
<path d="M12.4823 7.7336C12.5933 7.7336 12.7043 7.6966 12.8153 7.62259C13.1114 7.43758 13.1854 7.03055 13.0003 6.73453L10.7062 3.14526C10.5212 2.84923 10.1141 2.77523 9.81811 2.96024C9.52209 3.14526 9.44808 3.55229 9.63309 3.84831L11.9273 7.43758C12.0753 7.6596 12.2603 7.7336 12.4823 7.7336Z" fill="#BFF747"/>
<path d="M8.00462 11.6561L4.26734 9.62094C3.97132 9.47293 3.56429 9.58394 3.41628 9.87996C3.23126 10.176 3.34227 10.583 3.6753 10.731L7.41258 12.7662C7.52358 12.8032 7.59759 12.8402 7.7086 12.8402C7.93061 12.8402 8.15263 12.7292 8.26364 12.5072C8.41165 12.2111 8.30064 11.8041 8.00462 11.6561Z" fill="#BFF747"/>
<path d="M36.6078 9.87996C36.4598 9.58394 36.0528 9.47293 35.7568 9.62094L31.9825 11.6561C31.6865 11.8041 31.5755 12.2111 31.7235 12.5072C31.8345 12.7292 32.0565 12.8402 32.2785 12.8402C32.3895 12.8402 32.5005 12.8032 32.5745 12.7662L36.3488 10.731C36.6448 10.583 36.7559 10.176 36.6078 9.87996Z" fill="#BFF747"/>
</svg>
