<svg xmlns="http://www.w3.org/2000/svg" width="481" height="100" viewBox="0 0 481 100" fill="none"><path d="M132.51 32.9565C132.51 26.9929 133.545 21.9396 135.617 17.7965C137.688 13.5906 140.356 10.1694 143.62 7.53291C146.884 4.89639 150.525 2.98178 154.542 1.78907C158.56 0.596355 162.514 0 166.406 0C168.603 0 170.549 0.0627743 172.244 0.188323C173.939 0.251097 175.476 0.43942 176.857 0.753291C178.741 1.25549 179.682 2.47958 179.682 4.42559V17.9848C179.682 19.2403 179.211 20.1819 178.27 20.8097C177.328 21.3746 176.261 21.6257 175.068 21.563H170.172C166.218 21.563 163.016 22.8812 160.568 25.5177C158.183 28.0915 156.99 31.6382 156.99 36.158V93.7847C156.99 95.4169 156.488 96.5782 155.484 97.2687C154.48 97.8965 153.538 98.2103 152.659 98.2103H135.334C134.518 98.2103 133.828 97.9278 133.263 97.3629C132.761 96.7979 132.51 95.9818 132.51 94.9147V32.9565Z" fill="white"></path><path d="M187.221 28.5309C187.221 24.5761 188.068 20.8724 189.763 17.4199C191.521 13.9673 193.875 10.9541 196.825 8.38036C199.775 5.80662 203.259 3.76646 207.276 2.25987C211.293 0.753291 215.562 0 220.081 0C224.726 0 228.964 0.753291 232.793 2.25987C236.622 3.76646 239.917 5.80662 242.679 8.38036C245.441 10.9541 247.575 13.9673 249.082 17.4199C250.651 20.8724 251.435 24.5761 251.435 28.5309V51.8829C251.435 52.9501 251.059 53.7975 250.306 54.4253C249.615 55.053 248.736 55.3669 247.669 55.3669H211.796V71.3743C211.796 72.4415 212.015 73.4773 212.455 74.4817C212.894 75.4233 213.49 76.3021 214.244 77.1182C215.06 77.8715 216.001 78.4992 217.068 79.0014C218.136 79.4408 219.328 79.6605 220.646 79.6605C221.965 79.6605 223.157 79.4094 224.224 78.9072C225.291 78.405 226.202 77.7773 226.955 77.024C227.708 76.2079 228.273 75.2977 228.65 74.2933C229.026 73.2889 229.215 72.2532 229.215 71.186V68.4553C229.215 67.8904 229.403 67.3882 229.78 66.9487C230.219 66.4465 230.878 66.1955 231.757 66.1955H248.799C249.552 66.1955 250.117 66.3838 250.494 66.7604C250.933 67.0743 251.153 67.702 251.153 68.6436V71.3743C251.153 75.3291 250.4 79.0642 248.893 82.5795C247.387 86.0321 245.253 89.0767 242.491 91.7132C239.791 94.2869 236.527 96.3271 232.698 97.8337C228.932 99.2775 224.726 99.9994 220.081 99.9994C215.562 99.9994 211.293 99.2775 207.276 97.8337C203.259 96.3271 199.775 94.2869 196.825 91.7132C193.875 89.0767 191.521 86.0321 189.763 82.5795C188.068 79.0642 187.221 75.3291 187.221 71.3743V28.5309ZM211.796 39.2653H229.215V28.8134C229.215 26.6163 228.43 24.6703 226.861 22.9754C225.354 21.2805 223.283 20.433 220.646 20.433C219.328 20.433 218.136 20.6841 217.068 21.1863C216.001 21.6257 215.06 22.2221 214.244 22.9754C213.49 23.7287 212.894 24.6075 212.455 25.6119C212.015 26.6163 211.796 27.6521 211.796 28.7192V39.2653Z" fill="white"></path><path d="M307.465 95.3855C306.9 97.2687 305.676 98.2103 303.793 98.2103H284.679C282.733 98.2103 281.54 97.2373 281.101 95.2913L257.562 6.87378C256.683 3.48397 257.531 1.78907 260.104 1.78907H278.747C280.819 1.78907 282.011 2.82484 282.325 4.89639L293.53 60.6399L294.283 67.4195L295.036 60.4516L306.241 4.70807C306.492 3.64091 306.963 2.88762 307.653 2.4482C308.344 2.00878 309.16 1.78907 310.101 1.78907H328.462C330.031 1.78907 330.972 2.29126 331.286 3.29565C331.6 4.23726 331.537 5.42997 331.098 6.87378L307.465 95.3855Z" fill="white"></path><path d="M337.695 28.5309C337.695 24.5761 338.543 20.8724 340.237 17.4199C341.932 13.9045 344.255 10.8599 347.205 8.2862C350.218 5.71246 353.702 3.70368 357.656 2.25987C361.674 0.753291 365.942 0 370.462 0C375.107 0 379.438 0.690517 383.455 2.07155C387.535 3.45258 391.05 5.39859 394.001 7.90956C397.014 10.4205 399.368 13.4337 401.062 16.949C402.82 20.4644 403.699 24.325 403.699 28.5309V71.3743C403.699 75.643 402.82 79.535 401.062 83.0503C399.368 86.5029 397.014 89.5161 394.001 92.0898C391.05 94.6008 387.567 96.5468 383.549 97.9278C379.532 99.3089 375.232 99.9994 370.65 99.9994C366.068 99.9994 361.768 99.3089 357.751 97.9278C353.733 96.5468 350.249 94.6008 347.299 92.0898C344.349 89.5161 341.995 86.5029 340.237 83.0503C338.543 79.535 337.695 75.643 337.695 71.3743V28.5309ZM362.176 70.7152C362.176 72.8495 362.929 74.7955 364.436 76.5532C366.005 78.2481 368.108 79.0956 370.744 79.0956C373.38 79.0956 375.452 78.2481 376.958 76.5532C378.465 74.7955 379.218 72.8495 379.218 70.7152V29.2842C379.218 28.217 378.998 27.1813 378.559 26.1769C378.182 25.1725 377.618 24.2936 376.864 23.5403C376.111 22.7243 375.201 22.0965 374.134 21.6571C373.129 21.1549 372 20.9038 370.744 20.9038C369.426 20.9038 368.233 21.1549 367.166 21.6571C366.162 22.0965 365.283 22.7243 364.53 23.5403C363.777 24.2936 363.18 25.1725 362.741 26.1769C362.364 27.1813 362.176 28.1856 362.176 29.19V70.7152Z" fill="white"></path><path d="M429.221 48.8698L410.861 5.83801C410.359 4.6453 410.202 3.67229 410.39 2.919C410.641 2.16571 411.332 1.78907 412.462 1.78907H432.14C433.333 1.78907 434.212 2.07155 434.777 2.63652C435.342 3.13871 435.718 3.79784 435.907 4.61391L444.569 29.2842L445.51 34.1806L446.358 29.19L455.02 4.61391C455.209 3.79784 455.554 3.13871 456.056 2.63652C456.621 2.07155 457.5 1.78907 458.692 1.78907H478.371C479.564 1.78907 480.286 2.16571 480.537 2.919C480.788 3.67229 480.694 4.6453 480.254 5.83801L461.705 48.8698L480.16 92.0898C480.474 92.8431 480.694 93.5964 480.819 94.3497C481.007 95.0402 481.039 95.6994 480.913 96.3271C480.85 96.8921 480.599 97.3629 480.16 97.7395C479.721 98.0534 479.03 98.2103 478.089 98.2103H460.199C459.32 98.2103 458.535 97.9592 457.845 97.457C457.217 96.9548 456.746 96.2643 456.433 95.3855L446.735 70.4327L445.51 65.2538L444.286 70.5269L434.494 95.3855C434.243 96.2015 433.772 96.8921 433.082 97.457C432.391 97.9592 431.607 98.2103 430.728 98.2103H412.838C411.959 98.2103 411.269 98.022 410.767 97.6454C410.327 97.2687 410.045 96.7979 409.919 96.2329C409.857 95.668 409.888 95.0402 410.014 94.3497C410.202 93.5964 410.453 92.8431 410.767 92.0898L429.221 48.8698Z" fill="white"></path><path d="M99.9981 39.9987V59.9985H39.999C36.5497 59.9985 33.1996 59.5608 29.9995 58.7359C12.7497 54.2986 0 38.6368 0 19.9999V0H59.9991C82.0866 0 99.9981 17.9125 99.9981 39.9987Z" fill="#BFF747"></path><path d="M100 99.9944H40.001V69.9951H70.0005C86.5689 69.9951 100 83.4262 100 99.9944Z" fill="#BFF747"></path><path d="M29.9995 69.0006V100H0V49.9634C7.2118 59.5757 17.8001 66.5129 29.9995 69.0006Z" fill="#BFF747"></path></svg>