<svg xmlns="http://www.w3.org/2000/svg" width="16" height="13" viewBox="0 0 16 13" fill="none"><path d="M9.18543 8.64362C8.79383 8.90469 8.33897 9.04269 7.87 9.04269C7.40106 9.04269 6.9462 8.90469 6.5546 8.64362L0.1048 4.34362C0.0690162 4.31977 0.0341546 4.2949 0 4.26932V11.3153C0 12.1232 0.655577 12.7643 1.44897 12.7643H14.291C15.0988 12.7643 15.74 12.1087 15.74 11.3153V4.26929C15.7058 4.29493 15.6708 4.31986 15.635 4.34375L9.18543 8.64362Z" fill="#BFF747"></path><path d="M0.616381 3.57613L7.06618 7.87616C7.31034 8.03894 7.59015 8.12032 7.86997 8.12032C8.14981 8.12032 8.42966 8.03891 8.67382 7.87616L15.1236 3.57613C15.5096 3.31897 15.74 2.88858 15.74 2.42407C15.74 1.62535 15.0902 0.975586 14.2915 0.975586H1.44848C0.649798 0.975617 0 1.62538 0 2.42483C0 2.88858 0.230443 3.31897 0.616381 3.57613Z" fill="#BFF747"></path></svg>