<svg xmlns="http://www.w3.org/2000/svg" width="30" height="30" viewBox="0 0 30 30" fill="none"><path d="M7.03125 4.55519C3.1534 4.55519 0 7.70947 0 11.5864C0 15.1261 2.62816 18.0632 6.03732 18.5473C5.76439 20.53 5.00736 22.4166 3.82459 24.0525C3.59455 24.3718 3.60316 24.8044 3.84861 25.1133C4.08943 25.4174 4.50791 25.5326 4.87518 25.3777C10.4559 23.0483 14.0625 17.6341 14.0625 11.5864C14.0625 7.70947 10.9091 4.55519 7.03125 4.55519ZM22.9688 4.55519C19.0909 4.55519 15.9375 7.70947 15.9375 11.5864C15.9375 15.1261 18.5657 18.0632 21.9748 18.5473C21.7019 20.53 20.9449 22.4166 19.7621 24.0525C19.5321 24.3718 19.5407 24.8044 19.7861 25.1133C20.0269 25.4174 20.4454 25.5326 20.8127 25.3777C26.3934 23.0483 30 17.6341 30 11.5864C30 7.70947 26.8466 4.55519 22.9688 4.55519Z" fill="#BFF747"></path></svg>