<svg xmlns="http://www.w3.org/2000/svg" width="16" height="16" viewBox="0 0 16 16" fill="none"><g clip-path="url(#clip0_8203_906)"><path d="M9.8379 4.26277C9.47588 4.26277 9.18207 3.96896 9.18207 3.60694V2.62319H6.55874V3.60694C6.55874 3.96896 6.26492 4.26277 5.9029 4.26277C5.54088 4.26277 5.24707 3.96896 5.24707 3.60694V2.62319C5.24707 1.89981 5.83535 1.31152 6.55874 1.31152H9.18207C9.90545 1.31152 10.4937 1.89981 10.4937 2.62319V3.60694C10.4937 3.96896 10.1999 4.26277 9.8379 4.26277Z" fill="#BFF747"></path><path d="M8.33564 10.0865C8.21759 10.1324 8.04707 10.1652 7.87 10.1652C7.69292 10.1652 7.52241 10.1324 7.36501 10.0734L0 7.62061V12.6246C0 13.6215 0.806675 14.4282 1.80354 14.4282H13.9365C14.9333 14.4282 15.74 13.6215 15.74 12.6246V7.62061L8.33564 10.0865Z" fill="#BFF747"></path><path d="M15.74 5.08284V6.5847L8.0274 9.15556C7.97493 9.17524 7.92247 9.1818 7.87 9.1818C7.81753 9.1818 7.76507 9.17524 7.7126 9.15556L0 6.5847V5.08284C0 4.08597 0.806675 3.2793 1.80354 3.2793H13.9365C14.9333 3.2793 15.74 4.08597 15.74 5.08284Z" fill="#BFF747"></path></g><defs><clipPath id="clip0_8203_906"><rect width="15.74" height="15.74" fill="white"></rect></clipPath></defs></svg>