<svg xmlns="http://www.w3.org/2000/svg" width="16" height="16" viewBox="0 0 16 16" fill="none"><g clip-path="url(#clip0_8189_524)"><path d="M7.87084 8.17339C10.1194 8.17339 11.9575 6.33528 11.9575 4.0867C11.9575 1.83811 10.1194 0 7.87084 0C5.62226 0 3.78418 1.83811 3.78418 4.0867C3.78418 6.33528 5.62229 8.17339 7.87084 8.17339Z" fill="#BFF747"></path><path d="M14.8843 11.4393C14.7772 11.1716 14.6345 10.9217 14.4738 10.6897C13.6529 9.4762 12.3859 8.67314 10.9582 8.47683C10.7798 8.459 10.5835 8.49467 10.4407 8.60175C9.69118 9.15497 8.79891 9.4405 7.8709 9.4405C6.9429 9.4405 6.05063 9.15497 5.3011 8.60175C5.15832 8.49467 4.96201 8.44114 4.78357 8.47683C3.3559 8.67314 2.07101 9.4762 1.26796 10.6897C1.10735 10.9217 0.964569 11.1894 0.857518 11.4393C0.803993 11.5463 0.821823 11.6713 0.875349 11.7783C1.01813 12.0282 1.19657 12.278 1.35718 12.4922C1.60701 12.8313 1.87471 13.1346 2.1781 13.4201C2.42793 13.67 2.71346 13.902 2.99902 14.134C4.40882 15.1869 6.10419 15.7401 7.85307 15.7401C9.60196 15.7401 11.2973 15.1869 12.7071 14.134C12.9927 13.9198 13.2782 13.67 13.528 13.4201C13.8136 13.1346 14.0991 12.8312 14.349 12.4922C14.5274 12.2602 14.6881 12.0282 14.8308 11.7783C14.92 11.6713 14.9378 11.5463 14.8843 11.4393Z" fill="#BFF747"></path></g><defs><clipPath id="clip0_8189_524"><rect width="15.74" height="15.74" fill="white"></rect></clipPath></defs></svg>