<svg xmlns="http://www.w3.org/2000/svg" width="97" height="20" viewBox="0 0 97 20" fill="none"><path d="M26.502 6.59134C26.502 5.39862 26.7091 4.38795 27.1234 3.55932C27.5377 2.71814 28.0712 2.0339 28.7241 1.50659C29.3769 0.979284 30.105 0.596359 30.9085 0.357815C31.712 0.119272 32.5029 0 33.2812 0C33.7206 0 34.1098 0.0125549 34.4488 0.0376648C34.7878 0.0502197 35.0953 0.0878845 35.3715 0.150659C35.7482 0.251099 35.9365 0.49592 35.9365 0.885122V3.59699C35.9365 3.84809 35.8423 4.03641 35.654 4.16196C35.4657 4.27495 35.2523 4.32517 35.0137 4.31262H34.0345C33.2436 4.31262 32.6033 4.57627 32.1137 5.10358C31.6366 5.61833 31.3981 6.32768 31.3981 7.23164V18.7571C31.3981 19.0835 31.2977 19.3158 31.0968 19.4539C30.8959 19.5794 30.7076 19.6422 30.5319 19.6422H27.0669C26.9037 19.6422 26.7656 19.5857 26.6526 19.4727C26.5522 19.3597 26.502 19.1965 26.502 18.9831V6.59134Z" fill="white"></path><path d="M37.4442 5.70621C37.4442 4.91525 37.6137 4.17451 37.9527 3.48399C38.3042 2.79347 38.775 2.19083 39.365 1.67608C39.9551 1.16133 40.6518 0.753296 41.4553 0.451977C42.2588 0.150659 43.1125 0 44.0164 0C44.9454 0 45.7928 0.150659 46.5586 0.451977C47.3244 0.753296 47.9835 1.16133 48.5359 1.67608C49.0883 2.19083 49.5152 2.79347 49.8165 3.48399C50.1303 4.17451 50.2872 4.91525 50.2872 5.70621V10.3766C50.2872 10.5901 50.2119 10.7596 50.0613 10.8851C49.9232 11.0107 49.7474 11.0734 49.534 11.0734H42.3592V14.275C42.3592 14.4884 42.4032 14.6955 42.491 14.8964C42.5789 15.0847 42.6982 15.2605 42.8488 15.4237C43.012 15.5744 43.2004 15.6999 43.4138 15.8004C43.6272 15.8883 43.8657 15.9322 44.1294 15.9322C44.393 15.9322 44.6315 15.882 44.845 15.7815C45.0584 15.6811 45.2404 15.5556 45.3911 15.4049C45.5417 15.2417 45.6547 15.0596 45.73 14.8588C45.8054 14.6579 45.843 14.4507 45.843 14.2373V13.6911C45.843 13.5782 45.8807 13.4777 45.956 13.3898C46.0439 13.2894 46.1757 13.2392 46.3515 13.2392H49.76C49.9106 13.2392 50.0236 13.2768 50.0989 13.3522C50.1868 13.4149 50.2307 13.5405 50.2307 13.7288V14.275C50.2307 15.0659 50.0801 15.8129 49.7788 16.516C49.4775 17.2065 49.0506 17.8154 48.4983 18.3428C47.9584 18.8575 47.3056 19.2655 46.5398 19.5669C45.7865 19.8556 44.9454 20 44.0164 20C43.1125 20 42.2588 19.8556 41.4553 19.5669C40.6518 19.2655 39.9551 18.8575 39.365 18.3428C38.775 17.8154 38.3042 17.2065 37.9527 16.516C37.6137 15.8129 37.4442 15.0659 37.4442 14.275V5.70621ZM42.3592 7.85311H45.843V5.76271C45.843 5.32329 45.6861 4.93409 45.3722 4.5951C45.0709 4.25612 44.6567 4.08663 44.1294 4.08663C43.8657 4.08663 43.6272 4.13685 43.4138 4.23729C43.2004 4.32517 43.012 4.44444 42.8488 4.5951C42.6982 4.74576 42.5789 4.92153 42.491 5.12241C42.4032 5.32329 42.3592 5.53045 42.3592 5.74388V7.85311Z" fill="white"></path><path d="M61.4932 19.0772C61.3802 19.4539 61.1354 19.6422 60.7587 19.6422H56.936C56.5468 19.6422 56.3083 19.4476 56.2204 19.0584L51.5125 1.37476C51.3368 0.696799 51.5063 0.357815 52.021 0.357815H55.7496C56.1639 0.357815 56.4024 0.564972 56.4652 0.979284L58.7061 12.1281L58.8568 13.484L59.0074 12.0904L61.2484 0.94162C61.2986 0.728186 61.3927 0.577527 61.5308 0.489642C61.6689 0.401758 61.8321 0.357815 62.0204 0.357815H65.6926C66.0064 0.357815 66.1947 0.458255 66.2575 0.659134C66.3203 0.847458 66.3077 1.086 66.2198 1.37476L61.4932 19.0772Z" fill="white"></path><path d="M67.5393 5.70621C67.5393 4.91525 67.7088 4.17451 68.0477 3.48399C68.3867 2.78092 68.8512 2.172 69.4413 1.65725C70.0439 1.1425 70.7406 0.740741 71.5315 0.451977C72.335 0.150659 73.1887 0 74.0926 0C75.0216 0 75.8879 0.138104 76.6913 0.414313C77.5074 0.690521 78.2104 1.07972 78.8005 1.58192C79.4031 2.08412 79.8738 2.68675 80.2128 3.38983C80.5643 4.09291 80.7401 4.86503 80.7401 5.70621V14.275C80.7401 15.1287 80.5643 15.9071 80.2128 16.6102C79.8738 17.3007 79.4031 17.9033 78.8005 18.4181C78.2104 18.9203 77.5136 19.3095 76.7102 19.5857C75.9067 19.8619 75.0467 20 74.1303 20C73.2138 20 72.3538 19.8619 71.5504 19.5857C70.7469 19.3095 70.0501 18.9203 69.4601 18.4181C68.87 17.9033 68.3993 17.3007 68.0477 16.6102C67.7088 15.9071 67.5393 15.1287 67.5393 14.275V5.70621ZM72.4354 14.1431C72.4354 14.57 72.5861 14.9592 72.8874 15.3107C73.2013 15.6497 73.6218 15.8192 74.1491 15.8192C74.6764 15.8192 75.0907 15.6497 75.392 15.3107C75.6933 14.9592 75.8439 14.57 75.8439 14.1431V5.85687C75.8439 5.64344 75.8 5.43628 75.7121 5.2354C75.6368 5.03453 75.5238 4.85876 75.3731 4.7081C75.2225 4.54488 75.0405 4.41933 74.827 4.33145C74.6262 4.23101 74.4002 4.18079 74.1491 4.18079C73.8855 4.18079 73.6469 4.23101 73.4335 4.33145C73.2326 4.41933 73.0569 4.54488 72.9062 4.7081C72.7556 4.85876 72.6363 5.03453 72.5484 5.2354C72.4731 5.43628 72.4354 5.63716 72.4354 5.83804V14.1431Z" fill="white"></path><path d="M85.8446 9.77401L82.1725 1.16761C82.0721 0.929065 82.0407 0.734463 82.0784 0.583804C82.1286 0.433145 82.2667 0.357815 82.4927 0.357815H86.4284C86.667 0.357815 86.8427 0.414313 86.9557 0.527307C87.0687 0.627746 87.144 0.759573 87.1817 0.922787L88.9142 5.85687L89.1025 6.83616L89.272 5.83804L91.0044 0.922787C91.0421 0.759573 91.1112 0.627746 91.2116 0.527307C91.3246 0.414313 91.5003 0.357815 91.7389 0.357815H95.6746C95.9132 0.357815 96.0575 0.433145 96.1077 0.583804C96.158 0.734463 96.1391 0.929065 96.0513 1.16761L92.3415 9.77401L96.0324 18.4181C96.0952 18.5687 96.1391 18.7194 96.1642 18.8701C96.2019 19.0082 96.2082 19.14 96.1831 19.2655C96.1705 19.3785 96.1203 19.4727 96.0324 19.548C95.9445 19.6108 95.8064 19.6422 95.6181 19.6422H92.0402C91.8644 19.6422 91.7075 19.592 91.5694 19.4915C91.4438 19.3911 91.3497 19.253 91.2869 19.0772L89.3473 14.0866L89.1025 13.0508L88.8577 14.1055L86.8992 19.0772C86.849 19.2404 86.7548 19.3785 86.6167 19.4915C86.4786 19.592 86.3217 19.6422 86.1459 19.6422H82.568C82.3922 19.6422 82.2541 19.6045 82.1537 19.5292C82.0658 19.4539 82.0093 19.3597 81.9842 19.2467C81.9717 19.1337 81.9779 19.0082 82.003 18.8701C82.0407 18.7194 82.0909 18.5687 82.1537 18.4181L85.8446 9.77401Z" fill="white"></path><path d="M19.9997 7.99978V11.9998H7.99985C7.30998 11.9998 6.63997 11.9122 5.99994 11.7473C2.54995 10.8598 0 7.72741 0 4V0H11.9999C16.4174 0 19.9997 3.58251 19.9997 7.99978Z" fill="#BFF747"></path><path d="M20.0009 19.9989H8.00098V13.999H14.0009C17.3146 13.999 20.0009 16.6852 20.0009 19.9989Z" fill="#BFF747"></path><path d="M5.99995 13.8001V20.0001H0V9.99268C1.44237 11.9152 3.56005 13.3026 5.99995 13.8001Z" fill="#BFF747"></path></svg>